<?xml version="1.0" encoding="utf-8"?>
<!-- Generator: Adobe Illustrator 18.0.0, SVG Export Plug-In . SVG Version: 6.00 Build 0)  -->
<!DOCTYPE svg PUBLIC "-//W3C//DTD SVG 1.1//EN" "http://www.w3.org/Graphics/SVG/1.1/DTD/svg11.dtd">
<svg version="1.1" id="Capa_1" xmlns="http://www.w3.org/2000/svg" xmlns:xlink="http://www.w3.org/1999/xlink" x="0px" y="0px"
	 viewBox="0 0 1024 1024" enable-background="new 0 0 1024 1024" xml:space="preserve" style="opacity: 0.5">
<g>
	<g id="arms">
		<g id="left">
			<path id="arm_1_" fill="#BABEB7" d="M280.2,586.4C178.9,542.9,86,646.1,86.6,695.9c0.1,9.8,15.8,23,23.2,14.3
				c24.5-28.9,74.5-72,112.1-33.2C224.8,680,290.5,590.8,280.2,586.4z"/>
			<g id="hand_1_">
				<path id="shadow" fill="#BABEB7" d="M38,766.8l11.4-14.2c0,0-23.1-18.1-18.9-25.3c9-15.6,32.1-19.2,51.6-7.9
					c19.5,11.2,28,33,19,48.6c-3.5,6.1-14.8,0.2-14.8,0.2l-11.4,14.2l0.1,12.1c17.1,1.7,33.1-3.1,43.7-13.8
					c2.5-2.5,12.7-14.7,14.6-17.8c3.7-6.4-15.3-53.6-37.7-66.5c-16.8-9.7-62.8-10.2-62.8-10.2s-11.5,11.7-17.7,22.6
					c-11.6,20.2-4.5,46.9,15.5,65.4L38,766.8z"/>
				<path id="top" fill="#DCE0DA" d="M49.4,752.6c-11-11.7-14.5-27.5-7.5-39.5c9-15.6,32.1-19.2,51.6-7.9c19.5,11.2,28,33,19,48.6
					c-5.2,9-15.1,14-26.2,14.4l0.1,12.1c21.1,2.1,40.7-5.8,50.2-22.3c14-24.4,0.8-58.3-29.6-75.9c-30.4-17.5-66.5-12-80.5,12.4
					c-11.6,20.2-4.5,46.9,15.5,65.4L49.4,752.6z"/>
			</g>
		</g>
		<g id="right">
			<path id="arm" fill="#DCE0DA" d="M747.5,586.4c101.2-43.5,194.2,59.7,193.6,109.5c-0.1,9.8-15.8,23-23.2,14.3
				c-24.5-28.9-74.5-72-112.1-33.2C802.8,680,737.2,590.8,747.5,586.4z"/>
			<g id="hand">
				<path id="shadow_1_" fill="#BABEB7" d="M989.7,766.8l-11.4-14.2c0,0,23.1-18.1,18.9-25.3c-9-15.6-32.1-19.2-51.6-7.9
					s-28,33-19,48.6c3.5,6.1,14.8,0.2,14.8,0.2l11.4,14.2l-0.1,12.1c-17.1,1.7-33.1-3.1-43.7-13.8c-2.5-2.5-12.7-14.7-14.6-17.8
					c-3.7-6.4,15.3-53.6,37.7-66.5c16.8-9.7,62.8-10.2,62.8-10.2s11.5,11.7,17.7,22.6c11.6,20.2,4.5,46.9-15.5,65.4L989.7,766.8z"/>
				<path id="top_1_" fill="#DCE0DA" d="M978.3,752.6c11-11.7,14.5-27.5,7.5-39.5c-9-15.6-32.1-19.2-51.6-7.9
					c-19.5,11.2-28,33-19,48.6c5.2,9,15.1,14,26.2,14.4l-0.1,12.1c-21.1,2.1-40.7-5.8-50.2-22.3c-14-24.4-0.8-58.3,29.6-75.9
					c30.4-17.5,66.5-12,80.5,12.4c11.6,20.2,4.5,46.9-15.5,65.4L978.3,752.6z"/>
			</g>
		</g>
	</g>
	<g id="body">
		<g id="chassie">
			<g id="base">
				<path fill="#DCE0DA" d="M186.4,777.1c0-96.4,122.2-441.7,327.4-441.7s327.4,346.1,327.4,441.7c0,95.6-277.7,113.7-327.4,113.7
					C464.1,890.7,186.4,873.5,186.4,777.1z"/>
			</g>
			<g id="highlight">
				<path fill="#BABEB7" d="M827.3,562.3c0,0-77.1,123.9-316.1,123.9c-136.3,0-173.9,29.9-194.7,78.9
					c-20.8,49,2.8,137.6,194.7,137.6s3.7,44.2,3.7,44.2s-400.4-85.8-400.4-87.8c0-2,109.4-433,109.4-433L827.3,562.3z"/>
			</g>
		</g>
		<g id="progress-indicator">
			<g id="divet">
				<path id="highlight-bottom" fill="#EAECE8" d="M765.9,775.4l-9.4-42.7c0,0-97,39.4-242.4,39.4s-243.3-38.4-243.3-38.4l-9.1,41.6
					c0,0,75.6,40.4,252.5,40.4S765.9,775.4,765.9,775.4z"/>
				<path id="divet-bottom" fill="#4C4C4C" d="M756.9,769.4l-9.1-33.5c0,0-93.5,36.2-233.6,36.2c-140.1,0-234.6-35.3-234.6-35.3
					l-8.8,32.5c0,0,72.9,37.5,243.4,37.5C684.7,806.7,756.9,769.4,756.9,769.4z"/>
				<polygon id="shadow-right_1_" fill="#BABEB7" points="747.8,735.9 756.5,732.6 765.9,775.4 756.9,769.4 				"/>
				<polygon id="shadow-left" fill="#8F918D" points="279.6,736.7 270.8,733.6 261.7,775.2 270.7,769.2 				"/>
				<path id="shadow-bottom" fill="#BABEB7" d="M322,786.5l-11.7,6c0,0-16.4-4.2-29.6-9.2c-13.2-5-19-8.1-19-8.1l9.1-5.9
					c0,0,8.1,4.4,22.8,9C308.2,782.8,322,786.5,322,786.5z"/>
			</g>
			<g id="completed">
				<path id="blue" fill="#84D3E8" d="M514.1,772c-140.1,0-234.6-35.3-234.6-35.3l-8.8,32.5c0,0,72.9,37.5,243.4,37.5
					c58,0,104.7-4.3,140.9-10l-3.6-36.4C614.2,766.8,567.5,772,514.1,772z"/>
				<path id="blue-shadow" fill="#6DADBC" d="M329.7,751.1c-31.6-7.5-50.2-14.4-50.2-14.4l-8.9,32.5c0,0,16.2,8.4,51.4,17.3
					C323.8,774.1,324.5,767.5,329.7,751.1z"/>
			</g>
		</g>
	</g>
	<g id="head">
		<g id="face">
			<path id="screen-shadow" fill="#9AB2B0" d="M752,192.3c-81.2-4.3-182.8-6.6-238.2-6.6S357.2,188,276,192.3
				c-68.6,3.6-83,34.3-83,140.5s6.3,177.8,49.6,217.1c72.2,65.5,203.9,96.3,271.2,96.3c68.1,0,199.5-30.8,271.7-96.3
				c43.3-39.3,49.9-111,49.9-217.1S820.6,196,752,192.3z"/>
			<path id="screen" fill="#A4BCB9" d="M240.7,431.4c0,111.2,215.6,154.5,273.1,154.5c57.5,0,273.1-43.2,273.1-154.5
				c0-201.4-122.3-248.3-273.1-248.3C363,183.1,240.7,229.9,240.7,431.4z"/>
			<path id="case_x5F_shadow" fill="#EAECE8" d="M513.8,199.8c55.5,0,158.6,2.3,240.4,6.7c31.9,1.7,36.4,9.5,39,14.2
				c10.1,17.7,11.4,58.7,11.4,92.5c0,100.6-0.3,164.6-32.8,194.1c-63.7,57.8-193.4,90.6-258.1,90.6c-64.5,0-191.9-32.8-255.6-90.6
				c-32.3-29.3-34.6-93.4-34.6-194.1c0-33.9,1.3-75,11.3-92.6c2.8-4.9,7.1-12.4,38.8-14.1C355.6,202.2,458.5,199.8,513.8,199.8
				 M513.8,142.4c-162.1,0-322.4,14.4-322.4,122.4s2.4,229.3,46.5,269.3c73.4,66.6,207.5,98,276,98c69.3,0,203-31.4,276.4-98
				c44.1-40,46.7-161.3,46.7-269.3S675.9,142.4,513.8,142.4z"/>
			<path id="case" fill="#DCE0DA" d="M513.8,218c55.5,0,158.6,2.3,240.4,6.7c31.9,1.7,36.4,9.5,39,14.2
				c10.1,17.7,11.4,58.7,11.4,92.5c0,100.6-6.4,164.6-38.8,194.1c-63.7,57.8-187.3,88.6-252,88.6c-64.5,0-187.9-30.8-251.6-88.6
				c-32.3-29.3-38.6-93.4-38.6-194.1c0-33.9,1.3-75,11.3-92.6c2.8-4.9,7.1-12.4,38.8-14.1C355.6,220.3,458.5,218,513.8,218
				 M513.8,181.7c-56.4,0-159.4,2.3-242,6.7c-69.8,3.7-84.5,34.9-84.5,142.9s6.5,181,50.5,220.9c73.4,66.6,207.5,98,276,98
				c69.3,0,203-31.4,276.4-98c44.1-40,50.7-112.9,50.7-220.9s-15-139.2-84.8-142.9C673.5,184.1,570.2,181.7,513.8,181.7L513.8,181.7
				z"/>
		</g>
		<g id="eyes">
			<ellipse id="left_1_" fill="#2C3332" cx="374.9" cy="356.3" rx="12.8" ry="34.2"/>
			<ellipse id="right_1_" fill="#2C3332" cx="652.8" cy="356.3" rx="12.8" ry="34.2"/>
		</g>
		<g id="indicators">
			<path id="mount" fill="#DCE0DA" d="M623.2,162.2c0-60.2-48.8-109.1-109.1-109.1c-60.2,0-109.1,48.8-109.1,109.1
				c0,9.4,48.8,9.4,109.1,9.4C574.4,171.6,623.2,171.6,623.2,162.2z"/>
			<g id="leds">
				<circle id="yellow" fill="#F0C419" cx="514.7" cy="135.4" r="16.3"/>
				<circle id="red" fill="#E64C3C" cx="563.5" cy="133.4" r="16.3"/>
				<circle id="green" fill="#4EBA64" cx="464.1" cy="133.4" r="16.3"/>
			</g>
		</g>
	</g>
</g>
</svg>
