<svg id="api" xmlns="http://www.w3.org/2000/svg" width="336.408" height="325.557" viewBox="0 0 336.408 325.557">
  <path id="Trazado_1" data-name="Trazado 1" d="M317.655,217.135a5.411,5.411,0,0,0-4.515-4.776l-18.523-3.111a107.841,107.841,0,0,0-17-41.135l10.872-15.266a5.407,5.407,0,0,0-.182-6.568c-2.564-3.108-5.287-6.132-8.2-9.04s-5.931-5.629-9.04-8.2a5.408,5.408,0,0,0-6.568-.182l-15.266,10.872a107.823,107.823,0,0,0-41.135-17L204.99,104.21a5.406,5.406,0,0,0-4.774-4.515c-4.012-.385-8.072-.6-12.186-.6s-8.175.213-12.186.6a5.409,5.409,0,0,0-4.774,4.515l-3.113,18.523a107.857,107.857,0,0,0-41.135,17l-15.266-10.872a5.408,5.408,0,0,0-6.568.182c-3.108,2.567-6.129,5.287-9.04,8.2s-5.629,5.931-8.193,9.04a5.408,5.408,0,0,0-.185,6.568l10.875,15.266a107.885,107.885,0,0,0-17,41.135l-18.521,3.111a5.409,5.409,0,0,0-4.515,4.776c-.385,4.012-.6,8.072-.6,12.186s.213,8.175.6,12.184a5.409,5.409,0,0,0,4.515,4.776l18.521,3.111a107.9,107.9,0,0,0,17,41.137L87.571,305.793a5.408,5.408,0,0,0,.185,6.568c2.564,3.111,5.285,6.132,8.193,9.04s5.931,5.631,9.04,8.2a5.411,5.411,0,0,0,6.568.185l15.266-10.875a107.9,107.9,0,0,0,41.135,17l3.113,18.523a5.414,5.414,0,0,0,4.774,4.515c4.014.382,8.074.6,12.186.6s8.175-.213,12.186-.6a5.412,5.412,0,0,0,4.774-4.515l3.113-18.523a107.868,107.868,0,0,0,41.135-17L264.5,329.78a5.411,5.411,0,0,0,6.568-.185c3.108-2.564,6.132-5.287,9.04-8.2s5.631-5.929,8.2-9.04a5.407,5.407,0,0,0,.182-6.568l-10.872-15.264a107.852,107.852,0,0,0,17-41.137l18.523-3.111a5.409,5.409,0,0,0,4.515-4.776c.385-4.012.6-8.072.6-12.184S318.04,221.144,317.655,217.135ZM188.03,289a59.685,59.685,0,1,1,59.686-59.684A59.686,59.686,0,0,1,188.03,289Zm0,0" transform="translate(-19.826 -33.986)" fill="#b6b1b7"/>
  <path id="Trazado_2" data-name="Trazado 2" d="M213.518,173.418a81.389,81.389,0,1,0,81.389,81.389A81.391,81.391,0,0,0,213.518,173.418Zm0,141.075A59.685,59.685,0,1,1,273.2,254.81,59.686,59.686,0,0,1,213.518,314.493Zm0,0" transform="translate(-45.314 -59.474)" fill="#9b959d"/>
  <path id="Trazado_3" data-name="Trazado 3" d="M301.974,240.173a65.154,65.154,0,0,0,15.967-2.064c.205-2.911.311-5.826.311-8.788,0-4.114-.213-8.175-.6-12.186a5.417,5.417,0,0,0-4.515-4.776l-18.523-3.111a107.881,107.881,0,0,0-17-41.135l10.872-15.266a5.407,5.407,0,0,0-.182-6.568c-2.567-3.108-5.287-6.132-8.2-9.04s-5.931-5.629-9.04-8.2a5.408,5.408,0,0,0-6.568-.182l-15.266,10.872a107.84,107.84,0,0,0-41.135-17L204.99,104.21a5.409,5.409,0,0,0-4.774-4.515c-4.012-.385-8.074-.6-12.186-.6s-8.175.213-12.186.6a5.409,5.409,0,0,0-4.774,4.515l-3.113,18.523a107.84,107.84,0,0,0-41.135,17l-15.266-10.872a5.408,5.408,0,0,0-6.568.182c-3.108,2.567-6.132,5.287-9.04,8.2s-5.629,5.931-8.2,9.04a5.408,5.408,0,0,0-.182,6.568l10.872,15.266a107.881,107.881,0,0,0-17,41.135l-18.523,3.111a5.412,5.412,0,0,0-4.515,4.776c-.382,4.012-.6,8.072-.6,12.186,0,1.36.028,2.708.072,4.058a81.038,81.038,0,0,0,32.483,6.794h38.963a59.687,59.687,0,1,1,117.4,0Zm0,0" transform="translate(-19.826 -33.986)" fill="#9b959d"/>
  <path id="Trazado_4" data-name="Trazado 4" d="M294.189,265.663a81.388,81.388,0,1,0-161.344,0h21.97a59.687,59.687,0,1,1,117.4,0Zm0,0" transform="translate(-45.314 -59.476)" fill="#857e87"/>
  <path id="Trazado_5" data-name="Trazado 5" d="M298.3,89.261c.044-.814.123-1.62.123-2.446a43.34,43.34,0,0,0-62.568-38.907A97.492,97.492,0,0,0,64.383,54.571a70.516,70.516,0,0,0,6.155,140.765H282.15A54.269,54.269,0,0,0,298.3,89.261Zm0,0" fill="#edf4ff"/>
  <path id="Trazado_6" data-name="Trazado 6" d="M113.944,213.241a75.956,75.956,0,0,1-54-129.382A70.516,70.516,0,0,0,70.538,224.1H282.15a54.256,54.256,0,0,0,32.557-10.852H113.944Zm0,0" transform="translate(0 -28.76)" fill="#dbeaff"/>
  <g id="Grupo_3" data-name="Grupo 3" transform="translate(70.537 70.538)">
    <path id="Trazado_7" data-name="Trazado 7" d="M157.7,116.072a13.122,13.122,0,0,0-24.719-.005L107.673,186.92a5.424,5.424,0,1,0,10.215,3.65l8.406-23.528h38.086l8.4,23.528A5.425,5.425,0,1,0,183,186.92Zm-27.529,40.116L143.2,119.711a2.366,2.366,0,0,1,4.279.005L160.5,156.187Zm0,0" transform="translate(-107.354 -107.355)" fill="#ff8086"/>
    <path id="Trazado_8" data-name="Trazado 8" d="M266.747,107.355h-18.99A10.865,10.865,0,0,0,236.9,118.207v70.538a5.427,5.427,0,0,0,10.854,0v-21.7h18.99a29.843,29.843,0,0,0,0-59.686Zm0,48.832h-18.99v-37.98h18.99a18.99,18.99,0,1,1,0,37.98Zm0,0" transform="translate(-151.783 -107.355)" fill="#ff8086"/>
    <path id="Trazado_9" data-name="Trazado 9" d="M352.266,107.355a5.424,5.424,0,0,0-5.426,5.426v75.963a5.426,5.426,0,0,0,10.852,0V112.781A5.424,5.424,0,0,0,352.266,107.355Zm0,0" transform="translate(-189.486 -107.355)" fill="#ff8086"/>
  </g>
  <path id="Trazado_10" data-name="Trazado 10" d="M118.648,181.676l-10.975,30.732a5.424,5.424,0,1,0,10.215,3.65l8.406-23.528h38.086l8.4,23.528A5.425,5.425,0,1,0,183,212.408l-10.975-30.732Zm0,0" transform="translate(-36.817 -62.306)" fill="#e5646e"/>
  <path id="Trazado_11" data-name="Trazado 11" d="M247.754,214.234v-21.7h18.99a29.8,29.8,0,0,0,23-10.852H236.9v32.555a5.426,5.426,0,0,0,10.852,0Zm0,0" transform="translate(-81.246 -62.308)" fill="#e5646e"/>
  <path id="Trazado_12" data-name="Trazado 12" d="M352.266,219.66a5.424,5.424,0,0,1-5.426-5.426V181.68h10.852v32.555A5.426,5.426,0,0,1,352.266,219.66Zm0,0" transform="translate(-118.95 -62.308)" fill="#e5646e"/>
</svg>
