<svg id="codificacion" xmlns="http://www.w3.org/2000/svg" width="304.87" height="304.87" viewBox="0 0 304.87 304.87">
  <path id="Trazado_13" data-name="Trazado 13" d="M0,0H183.973V268.075H0Z" fill="gray"/>
  <path id="Trazado_14" data-name="Trazado 14" d="M360.435,137.128H271.077l-31.538,21.026V137.128H223.769A15.769,15.769,0,0,1,208,121.358V47.769A15.769,15.769,0,0,1,223.769,32H360.435A15.769,15.769,0,0,1,376.2,47.769v73.589A15.769,15.769,0,0,1,360.435,137.128Z" transform="translate(-71.334 -10.974)" fill="#e6e6e6"/>
  <path id="Trazado_15" data-name="Trazado 15" d="M223.769,32H360.435A15.769,15.769,0,0,1,376.2,47.769V74.051H208V47.769A15.769,15.769,0,0,1,223.769,32Z" transform="translate(-71.334 -10.974)" fill="#0071bc"/>
  <path id="Trazado_16" data-name="Trazado 16" d="M232,56h10.513V66.513H232Z" transform="translate(-79.565 -19.205)" fill="#da4836"/>
  <path id="Trazado_17" data-name="Trazado 17" d="M264,56h10.513V66.513H264Z" transform="translate(-90.54 -19.205)" fill="#f8cf26"/>
  <path id="Trazado_18" data-name="Trazado 18" d="M296,56h10.513V66.513H296Z" transform="translate(-101.514 -19.205)" fill="#3dbf50"/>
  <path id="Trazado_19" data-name="Trazado 19" d="M110.384,304.87,0,268.075V0L110.384,36.795Z" fill="#fbb03b"/>
  <path id="Trazado_20" data-name="Trazado 20" d="M360.435,285.026H271.077L239.538,264v21.026H223.769A15.769,15.769,0,0,0,208,300.795v52.564a15.769,15.769,0,0,0,15.769,15.769H360.435A15.769,15.769,0,0,0,376.2,353.358V300.795A15.769,15.769,0,0,0,360.435,285.026Z" transform="translate(-71.334 -90.54)" fill="#29abe2"/>
  <g id="Grupo_4" data-name="Grupo 4" transform="translate(157.691 78.846)">
    <path id="Trazado_21" data-name="Trazado 21" d="M240,152H366.153v10.513H240Z" transform="translate(-240 -130.974)" fill="#999"/>
    <path id="Trazado_22" data-name="Trazado 22" d="M256,120h10.513v10.513H256Z" transform="translate(-245.487 -120)" fill="#999"/>
    <path id="Trazado_23" data-name="Trazado 23" d="M288,120h94.615v10.513H288Z" transform="translate(-256.462 -120)" fill="#999"/>
  </g>
  <g id="Grupo_5" data-name="Grupo 5" transform="translate(157.691 208.573)">
    <path id="Trazado_24" data-name="Trazado 24" d="M252.053,350.8l-10.513-10.513a5.256,5.256,0,0,1,0-7.433l10.513-10.513,7.433,7.433-6.8,6.8,6.8,6.8Z" transform="translate(-240.001 -319.122)" fill="#fbb03b"/>
    <path id="Trazado_25" data-name="Trazado 25" d="M313.777,350.8l-7.433-7.433,6.8-6.8-6.8-6.8,7.433-7.433,10.513,10.513a5.256,5.256,0,0,1,0,7.433Z" transform="translate(-262.753 -319.122)" fill="#fbb03b"/>
    <path id="Trazado_26" data-name="Trazado 26" d="M272.406,348.979l10.519-31.539,9.973,3.326L282.379,352.3Z" transform="translate(-251.114 -317.44)" fill="#fbb03b"/>
    <path id="Trazado_27" data-name="Trazado 27" d="M352,336h10.513v10.513H352Z" transform="translate(-278.411 -323.805)" fill="#fbb03b"/>
    <path id="Trazado_28" data-name="Trazado 28" d="M240,384h10.513v10.513H240Z" transform="translate(-240 -340.267)" fill="#fbb03b"/>
    <path id="Trazado_29" data-name="Trazado 29" d="M272,384H377.128v10.513H272Z" transform="translate(-250.974 -340.267)" fill="#fbb03b"/>
    <path id="Trazado_30" data-name="Trazado 30" d="M384,336h10.513v10.513H384Z" transform="translate(-289.385 -323.805)" fill="#fbb03b"/>
    <path id="Trazado_31" data-name="Trazado 31" d="M416,336h10.513v10.513H416Z" transform="translate(-300.36 -323.805)" fill="#fbb03b"/>
  </g>
  <circle id="Elipse_1" data-name="Elipse 1" cx="15.769" cy="15.769" r="15.769" transform="translate(57.82 141.922)" fill="#f15a24"/>
</svg>
