<svg id="menus" xmlns="http://www.w3.org/2000/svg" width="329.543" height="330.229" viewBox="0 0 329.543 330.229">
  <path id="Trazado_32" data-name="Trazado 32" d="M221.591,92.684a103.4,103.4,0,0,0-9.612-24.029l8.239-19.223L191.382,21.283l-19.223,8.239A92.626,92.626,0,0,0,148.13,19.91L141.265,0H100.759L93.206,19.91a103.4,103.4,0,0,0-24.029,9.612L49.954,21.283,21.805,49.432l8.239,19.223a92.626,92.626,0,0,0-9.612,24.029L.522,100.236v40.506l19.91,7.552a103.4,103.4,0,0,0,9.612,24.029l-8.239,19.223L50.64,219.695l19.223-8.239a92.626,92.626,0,0,0,24.029,9.612l7.552,19.91h39.82l7.552-19.91a103.4,103.4,0,0,0,24.029-9.612l19.223,8.239L220.9,191.546l-8.239-19.223a92.626,92.626,0,0,0,9.612-24.029l19.91-7.552V100.236ZM120.668,169.577A49.432,49.432,0,1,1,170.1,120.146,49.226,49.226,0,0,1,120.668,169.577Z" transform="translate(-0.522)" fill="#84dbff"/>
  <g id="Grupo_6" data-name="Grupo 6" transform="translate(46.342 46.342)">
    <path id="Trazado_33" data-name="Trazado 33" d="M191.159,190.636a48.9,48.9,0,0,1-69.341,0l-17.85,17.85c28.835,28.835,76.207,28.835,105.041,0s28.835-75.52,0-105.041l-17.85,17.85A48.9,48.9,0,0,1,191.159,190.636Z" transform="translate(-82.341 -81.819)" fill="#54c0eb"/>
    <path id="Trazado_34" data-name="Trazado 34" d="M92.679,92.157c-28.835,28.835-28.835,75.52,0,105.041l17.85-17.85a49.032,49.032,0,0,1,69.341-69.341l17.85-17.85C168.886,63.322,121.514,63.322,92.679,92.157Z" transform="translate(-71.053 -70.531)" fill="#54c0eb"/>
  </g>
  <path id="Trazado_35" data-name="Trazado 35" d="M301.349,396.873a33.322,33.322,0,0,0,0-11.671l6.866-6.865-6.866-17.163h-9.612c-2.06-2.746-5.492-5.492-8.239-8.239v-9.612l-17.163-6.865-6.866,6.865a33.322,33.322,0,0,0-11.671,0l-6.866-6.865-17.163,6.865v9.612c-2.746,2.06-5.492,5.492-8.239,8.239h-9.612l-6.865,17.163,6.865,6.865a33.322,33.322,0,0,0,0,11.671l-6.865,6.865,6.865,17.163h9.612c2.06,2.746,5.492,5.492,8.239,8.239v9.612l17.163,6.866,6.866-6.866a33.32,33.32,0,0,0,11.671,0l6.866,6.866,17.163-6.866v-9.612c2.746-2.06,5.492-5.492,8.239-8.239h9.612l6.866-17.163Zm-54.924,14.418c-11.671-4.806-17.163-17.85-12.358-28.835,4.806-11.671,17.85-17.163,28.835-12.358,11.671,4.806,17.163,17.85,12.358,28.835C270.454,410.6,257.409,416.1,246.425,411.291Z" transform="translate(-68.609 -115.389)" fill="#4cdbc4"/>
  <path id="Trazado_36" data-name="Trazado 36" d="M438.23,259.992a33.322,33.322,0,0,0,0-11.671l6.865-6.866-6.865-17.163h-9.612c-2.06-2.746-5.492-5.492-8.239-8.239v-9.612l-17.163-6.865-6.865,6.865a33.322,33.322,0,0,0-11.671,0l-6.865-6.865-17.163,6.865v9.612c-2.746,2.06-5.492,5.492-8.239,8.239H342.8l-6.865,17.163,6.865,6.866a33.323,33.323,0,0,0,0,11.671l-6.865,6.866,6.865,17.163h9.612c2.06,2.746,5.492,5.492,8.239,8.239v9.612l17.163,6.865,6.865-6.865a33.322,33.322,0,0,0,11.671,0l6.865,6.865,17.163-6.865V292.26c2.746-2.06,5.492-5.492,8.239-8.239h9.612l6.865-17.163Zm-55.61,15.1c-11.671-4.806-17.163-17.85-12.358-28.835,4.806-11.671,17.85-17.163,28.835-12.358,11.671,4.806,17.163,17.85,12.358,28.835C407.335,274.409,394.291,279.9,382.62,275.1Z" transform="translate(-115.552 -68.445)" fill="#ff7058"/>
</svg>
