<svg id="origen" xmlns="http://www.w3.org/2000/svg" width="272.948" height="230.956" viewBox="0 0 272.948 230.956">
  <rect id="Rectángulo_1" data-name="Rectángulo 1" width="31.494" height="10.498" transform="translate(15.747 220.458)" fill="#839594"/>
  <rect id="Rectángulo_2" data-name="Rectángulo 2" width="31.494" height="10.498" transform="translate(225.707 220.458)" fill="#839594"/>
  <rect id="Rectángulo_3" data-name="Rectángulo 3" width="272.948" height="73.486" transform="translate(0 146.972)" fill="#283238"/>
  <circle id="Elipse_2" data-name="Elipse 2" cx="15.747" cy="15.747" r="15.747" transform="translate(26.245 167.968)" fill="#e7eced"/>
  <g id="Grupo_7" data-name="Grupo 7" transform="translate(136.474 162.719)">
    <path id="Trazado_37" data-name="Trazado 37" d="M51.249,35A5.244,5.244,0,0,0,46,40.249V71.743a5.249,5.249,0,0,0,10.5,0V40.249A5.244,5.244,0,0,0,51.249,35Z" transform="translate(58.98 -35)" fill="#38454f"/>
    <path id="Trazado_38" data-name="Trazado 38" d="M47.249,35A5.244,5.244,0,0,0,42,40.249V71.743a5.249,5.249,0,0,0,10.5,0V40.249A5.244,5.244,0,0,0,47.249,35Z" transform="translate(41.984 -35)" fill="#38454f"/>
    <path id="Trazado_39" data-name="Trazado 39" d="M43.249,35A5.244,5.244,0,0,0,38,40.249V71.743a5.249,5.249,0,0,0,10.5,0V40.249A5.244,5.244,0,0,0,43.249,35Z" transform="translate(24.988 -35)" fill="#38454f"/>
    <path id="Trazado_40" data-name="Trazado 40" d="M39.249,35A5.244,5.244,0,0,0,34,40.249V71.743a5.249,5.249,0,0,0,10.5,0V40.249A5.244,5.244,0,0,0,39.249,35Z" transform="translate(7.992 -35)" fill="#38454f"/>
    <path id="Trazado_41" data-name="Trazado 41" d="M35.249,35A5.244,5.244,0,0,0,30,40.249V71.743a5.249,5.249,0,0,0,10.5,0V40.249A5.244,5.244,0,0,0,35.249,35Z" transform="translate(-9.004 -35)" fill="#38454f"/>
    <path id="Trazado_42" data-name="Trazado 42" d="M31.249,35A5.244,5.244,0,0,0,26,40.249V71.743a5.249,5.249,0,0,0,10.5,0V40.249A5.244,5.244,0,0,0,31.249,35Z" transform="translate(-26 -35)" fill="#38454f"/>
  </g>
  <rect id="Rectángulo_4" data-name="Rectángulo 4" width="272.948" height="73.486" transform="translate(0 73.486)" fill="#38454f"/>
  <circle id="Elipse_3" data-name="Elipse 3" cx="15.747" cy="15.747" r="15.747" transform="translate(26.245 94.482)" fill="#e7eced"/>
  <g id="Grupo_8" data-name="Grupo 8" transform="translate(136.474 89.233)">
    <path id="Trazado_43" data-name="Trazado 43" d="M51.249,21A5.244,5.244,0,0,0,46,26.249V57.743a5.249,5.249,0,1,0,10.5,0V26.249A5.244,5.244,0,0,0,51.249,21Z" transform="translate(58.98 -21)" fill="#283238"/>
    <path id="Trazado_44" data-name="Trazado 44" d="M47.249,21A5.244,5.244,0,0,0,42,26.249V57.743a5.249,5.249,0,1,0,10.5,0V26.249A5.244,5.244,0,0,0,47.249,21Z" transform="translate(41.984 -21)" fill="#283238"/>
    <path id="Trazado_45" data-name="Trazado 45" d="M43.249,21A5.244,5.244,0,0,0,38,26.249V57.743a5.249,5.249,0,1,0,10.5,0V26.249A5.244,5.244,0,0,0,43.249,21Z" transform="translate(24.988 -21)" fill="#283238"/>
    <path id="Trazado_46" data-name="Trazado 46" d="M39.249,21A5.244,5.244,0,0,0,34,26.249V57.743a5.249,5.249,0,1,0,10.5,0V26.249A5.244,5.244,0,0,0,39.249,21Z" transform="translate(7.992 -21)" fill="#283238"/>
    <path id="Trazado_47" data-name="Trazado 47" d="M35.249,21A5.244,5.244,0,0,0,30,26.249V57.743a5.249,5.249,0,1,0,10.5,0V26.249A5.244,5.244,0,0,0,35.249,21Z" transform="translate(-9.004 -21)" fill="#283238"/>
    <path id="Trazado_48" data-name="Trazado 48" d="M31.249,21A5.244,5.244,0,0,0,26,26.249V57.743a5.249,5.249,0,1,0,10.5,0V26.249A5.244,5.244,0,0,0,31.249,21Z" transform="translate(-26 -21)" fill="#283238"/>
  </g>
  <rect id="Rectángulo_5" data-name="Rectángulo 5" width="272.948" height="73.486" fill="#283238"/>
  <circle id="Elipse_4" data-name="Elipse 4" cx="15.747" cy="15.747" r="15.747" transform="translate(26.245 20.996)" fill="#e7eced"/>
  <g id="Grupo_9" data-name="Grupo 9" transform="translate(136.474 15.747)">
    <path id="Trazado_49" data-name="Trazado 49" d="M51.249,7A5.244,5.244,0,0,0,46,12.249V43.743a5.249,5.249,0,1,0,10.5,0V12.249A5.244,5.244,0,0,0,51.249,7Z" transform="translate(58.98 -7)" fill="#38454f"/>
    <path id="Trazado_50" data-name="Trazado 50" d="M47.249,7A5.244,5.244,0,0,0,42,12.249V43.743a5.249,5.249,0,0,0,10.5,0V12.249A5.244,5.244,0,0,0,47.249,7Z" transform="translate(41.984 -7)" fill="#38454f"/>
    <path id="Trazado_51" data-name="Trazado 51" d="M43.249,7A5.244,5.244,0,0,0,38,12.249V43.743a5.249,5.249,0,0,0,10.5,0V12.249A5.244,5.244,0,0,0,43.249,7Z" transform="translate(24.988 -7)" fill="#38454f"/>
    <path id="Trazado_52" data-name="Trazado 52" d="M39.249,7A5.244,5.244,0,0,0,34,12.249V43.743a5.249,5.249,0,0,0,10.5,0V12.249A5.244,5.244,0,0,0,39.249,7Z" transform="translate(7.992 -7)" fill="#38454f"/>
    <path id="Trazado_53" data-name="Trazado 53" d="M35.249,7A5.244,5.244,0,0,0,30,12.249V43.743a5.249,5.249,0,1,0,10.5,0V12.249A5.244,5.244,0,0,0,35.249,7Z" transform="translate(-9.004 -7)" fill="#38454f"/>
    <path id="Trazado_54" data-name="Trazado 54" d="M31.249,7A5.244,5.244,0,0,0,26,12.249V43.743a5.249,5.249,0,0,0,10.5,0V12.249A5.244,5.244,0,0,0,31.249,7Z" transform="translate(-26 -7)" fill="#38454f"/>
  </g>
  <circle id="Elipse_5" data-name="Elipse 5" cx="10.498" cy="10.498" r="10.498" transform="translate(68.237 173.217)" fill="#21c6f7"/>
  <circle id="Elipse_6" data-name="Elipse 6" cx="10.498" cy="10.498" r="10.498" transform="translate(68.237 99.731)" fill="#21c6f7"/>
  <circle id="Elipse_7" data-name="Elipse 7" cx="10.498" cy="10.498" r="10.498" transform="translate(68.237 26.245)" fill="#81ea1c"/>
</svg>
