<svg id="perfiles" xmlns="http://www.w3.org/2000/svg" width="336.408" height="252.306" viewBox="0 0 336.408 252.306">
  <path id="Trazado_55" data-name="Trazado 55" d="M313.82,198.615H292.795V109.256A5.257,5.257,0,0,0,287.538,104H261.256a5.256,5.256,0,0,0,0,10.513h21.026v84.1H261.256a5.256,5.256,0,0,0,0,10.513h21.026v84.1H261.256a5.256,5.256,0,1,0,0,10.513h26.282a5.257,5.257,0,0,0,5.256-5.256V209.128H313.82a5.256,5.256,0,0,0,0-10.513Z" transform="translate(-87.796 -77.718)" fill="#f09b24"/>
  <path id="Trazado_56" data-name="Trazado 56" d="M173.46,64H5.256A5.257,5.257,0,0,0,0,69.256V121.82a5.257,5.257,0,0,0,5.256,5.256h168.2a5.257,5.257,0,0,0,5.256-5.256V69.256A5.257,5.257,0,0,0,173.46,64Z" transform="translate(0 -64)" fill="#8e9aa9"/>
  <path id="Trazado_57" data-name="Trazado 57" d="M15.769,116.564a5.257,5.257,0,0,1-5.256-5.256V64H5.256A5.257,5.257,0,0,0,0,69.256V121.82a5.257,5.257,0,0,0,5.256,5.256h168.2a5.257,5.257,0,0,0,5.256-5.256v-5.256Z" transform="translate(0 -64)" fill="#7c899b"/>
  <rect id="Rectángulo_6" data-name="Rectángulo 6" width="57.82" height="21.026" transform="translate(99.871 21.026)" fill="#b8e3a8"/>
  <g id="Grupo_10" data-name="Grupo 10" transform="translate(99.871 21.026)">
    <path id="Trazado_58" data-name="Trazado 58" d="M152,96v21.026h9.2L182.224,96Z" transform="translate(-152 -96)" fill="#7ec97d"/>
    <path id="Trazado_59" data-name="Trazado 59" d="M209.026,96,188,117.026h34.166V96Z" transform="translate(-164.346 -96)" fill="#7ec97d"/>
  </g>
  <path id="Trazado_60" data-name="Trazado 60" d="M207.077,119.538h-57.82A5.257,5.257,0,0,1,144,114.282V93.256A5.257,5.257,0,0,1,149.256,88h57.82a5.257,5.257,0,0,1,5.256,5.256v21.026A5.257,5.257,0,0,1,207.077,119.538Zm-52.564-10.513H201.82V98.513H154.513Z" transform="translate(-49.385 -72.231)" fill="#56677e"/>
  <g id="Grupo_11" data-name="Grupo 11" transform="translate(15.769 15.769)">
    <path id="Trazado_61" data-name="Trazado 61" d="M29.256,119.538A5.257,5.257,0,0,1,24,114.282V93.256a5.256,5.256,0,0,1,10.513,0v21.026A5.257,5.257,0,0,1,29.256,119.538Z" transform="translate(-24 -88)" fill="#435670"/>
    <path id="Trazado_62" data-name="Trazado 62" d="M53.256,119.538A5.257,5.257,0,0,1,48,114.282V93.256a5.256,5.256,0,0,1,10.513,0v21.026A5.257,5.257,0,0,1,53.256,119.538Z" transform="translate(-32.231 -88)" fill="#435670"/>
    <path id="Trazado_63" data-name="Trazado 63" d="M77.256,119.538A5.257,5.257,0,0,1,72,114.282V93.256a5.256,5.256,0,0,1,10.513,0v21.026A5.257,5.257,0,0,1,77.256,119.538Z" transform="translate(-40.462 -88)" fill="#435670"/>
    <path id="Trazado_64" data-name="Trazado 64" d="M101.256,119.538A5.257,5.257,0,0,1,96,114.282V93.256a5.256,5.256,0,1,1,10.513,0v21.026A5.257,5.257,0,0,1,101.256,119.538Z" transform="translate(-48.693 -88)" fill="#435670"/>
    <path id="Trazado_65" data-name="Trazado 65" d="M125.256,99.17A5.257,5.257,0,0,1,120,93.913v-.657a5.256,5.256,0,1,1,10.513,0v.657A5.257,5.257,0,0,1,125.256,99.17Z" transform="translate(-56.923 -88)" fill="#435670"/>
    <path id="Trazado_66" data-name="Trazado 66" d="M125.256,130.17A5.257,5.257,0,0,1,120,124.913v-.657a5.256,5.256,0,0,1,10.513,0v.657A5.257,5.257,0,0,1,125.256,130.17Z" transform="translate(-56.923 -98.632)" fill="#435670"/>
  </g>
  <path id="Trazado_67" data-name="Trazado 67" d="M173.46,208H5.256A5.257,5.257,0,0,0,0,213.256V265.82a5.257,5.257,0,0,0,5.256,5.256h168.2a5.257,5.257,0,0,0,5.256-5.256V213.256A5.257,5.257,0,0,0,173.46,208Z" transform="translate(0 -113.385)" fill="#8e9aa9"/>
  <path id="Trazado_68" data-name="Trazado 68" d="M15.769,260.564a5.257,5.257,0,0,1-5.256-5.256V208H5.256A5.257,5.257,0,0,0,0,213.256V265.82a5.257,5.257,0,0,0,5.256,5.256h168.2a5.257,5.257,0,0,0,5.256-5.256v-5.256Z" transform="translate(0 -113.385)" fill="#7c899b"/>
  <rect id="Rectángulo_7" data-name="Rectángulo 7" width="57.82" height="21.026" transform="translate(99.871 115.64)" fill="#b8e3a8"/>
  <g id="Grupo_12" data-name="Grupo 12" transform="translate(99.871 115.64)">
    <path id="Trazado_69" data-name="Trazado 69" d="M152,240v21.026h9.2L182.224,240Z" transform="translate(-152 -240)" fill="#7ec97d"/>
    <path id="Trazado_70" data-name="Trazado 70" d="M209.026,240,188,261.026h34.166V240Z" transform="translate(-164.346 -240)" fill="#7ec97d"/>
  </g>
  <path id="Trazado_71" data-name="Trazado 71" d="M207.077,263.538h-57.82A5.257,5.257,0,0,1,144,258.282V237.256A5.257,5.257,0,0,1,149.256,232h57.82a5.257,5.257,0,0,1,5.256,5.256v21.026A5.257,5.257,0,0,1,207.077,263.538Zm-52.564-10.513H201.82V242.513H154.513Z" transform="translate(-49.385 -121.616)" fill="#56677e"/>
  <g id="Grupo_13" data-name="Grupo 13" transform="translate(15.769 110.384)">
    <path id="Trazado_72" data-name="Trazado 72" d="M29.256,263.538A5.257,5.257,0,0,1,24,258.282V237.256a5.256,5.256,0,0,1,10.513,0v21.026A5.257,5.257,0,0,1,29.256,263.538Z" transform="translate(-24 -232)" fill="#435670"/>
    <path id="Trazado_73" data-name="Trazado 73" d="M53.256,263.538A5.257,5.257,0,0,1,48,258.282V237.256a5.256,5.256,0,0,1,10.513,0v21.026A5.257,5.257,0,0,1,53.256,263.538Z" transform="translate(-32.231 -232)" fill="#435670"/>
    <path id="Trazado_74" data-name="Trazado 74" d="M77.256,263.538A5.257,5.257,0,0,1,72,258.282V237.256a5.256,5.256,0,0,1,10.513,0v21.026A5.257,5.257,0,0,1,77.256,263.538Z" transform="translate(-40.462 -232)" fill="#435670"/>
    <path id="Trazado_75" data-name="Trazado 75" d="M101.256,263.538A5.257,5.257,0,0,1,96,258.282V237.256a5.256,5.256,0,0,1,10.513,0v21.026A5.257,5.257,0,0,1,101.256,263.538Z" transform="translate(-48.693 -232)" fill="#435670"/>
    <path id="Trazado_76" data-name="Trazado 76" d="M125.256,243.17A5.257,5.257,0,0,1,120,237.913v-.657a5.256,5.256,0,0,1,10.513,0v.657A5.257,5.257,0,0,1,125.256,243.17Z" transform="translate(-56.923 -232)" fill="#435670"/>
    <path id="Trazado_77" data-name="Trazado 77" d="M125.256,274.17A5.257,5.257,0,0,1,120,268.913v-.657a5.256,5.256,0,0,1,10.513,0v.657A5.257,5.257,0,0,1,125.256,274.17Z" transform="translate(-56.923 -242.632)" fill="#435670"/>
  </g>
  <path id="Trazado_78" data-name="Trazado 78" d="M173.46,352H5.256A5.257,5.257,0,0,0,0,357.256V409.82a5.257,5.257,0,0,0,5.256,5.256h168.2a5.257,5.257,0,0,0,5.256-5.256V357.256A5.257,5.257,0,0,0,173.46,352Z" transform="translate(0 -162.77)" fill="#8e9aa9"/>
  <path id="Trazado_79" data-name="Trazado 79" d="M15.769,404.564a5.257,5.257,0,0,1-5.256-5.256V352H5.256A5.257,5.257,0,0,0,0,357.256V409.82a5.257,5.257,0,0,0,5.256,5.256h168.2a5.257,5.257,0,0,0,5.256-5.256v-5.256Z" transform="translate(0 -162.77)" fill="#7c899b"/>
  <rect id="Rectángulo_8" data-name="Rectángulo 8" width="57.82" height="21.026" transform="translate(99.871 210.255)" fill="#b8e3a8"/>
  <g id="Grupo_14" data-name="Grupo 14" transform="translate(99.871 210.255)">
    <path id="Trazado_80" data-name="Trazado 80" d="M152,384v21.026h9.2L182.224,384Z" transform="translate(-152 -384)" fill="#7ec97d"/>
    <path id="Trazado_81" data-name="Trazado 81" d="M209.026,384,188,405.026h34.166V384Z" transform="translate(-164.346 -384)" fill="#7ec97d"/>
  </g>
  <path id="Trazado_82" data-name="Trazado 82" d="M207.077,407.538h-57.82A5.257,5.257,0,0,1,144,402.282V381.256A5.257,5.257,0,0,1,149.256,376h57.82a5.257,5.257,0,0,1,5.256,5.256v21.026A5.257,5.257,0,0,1,207.077,407.538Zm-52.564-10.513H201.82V386.513H154.513Z" transform="translate(-49.385 -171.001)" fill="#56677e"/>
  <g id="Grupo_15" data-name="Grupo 15" transform="translate(15.769 204.999)">
    <path id="Trazado_83" data-name="Trazado 83" d="M29.256,407.538A5.257,5.257,0,0,1,24,402.282V381.256a5.256,5.256,0,0,1,10.513,0v21.026A5.257,5.257,0,0,1,29.256,407.538Z" transform="translate(-24 -376)" fill="#435670"/>
    <path id="Trazado_84" data-name="Trazado 84" d="M53.256,407.538A5.257,5.257,0,0,1,48,402.282V381.256a5.256,5.256,0,0,1,10.513,0v21.026A5.257,5.257,0,0,1,53.256,407.538Z" transform="translate(-32.231 -376)" fill="#435670"/>
    <path id="Trazado_85" data-name="Trazado 85" d="M77.256,407.538A5.257,5.257,0,0,1,72,402.282V381.256a5.256,5.256,0,0,1,10.513,0v21.026A5.257,5.257,0,0,1,77.256,407.538Z" transform="translate(-40.462 -376)" fill="#435670"/>
    <path id="Trazado_86" data-name="Trazado 86" d="M101.256,407.538A5.257,5.257,0,0,1,96,402.282V381.256a5.256,5.256,0,0,1,10.513,0v21.026A5.257,5.257,0,0,1,101.256,407.538Z" transform="translate(-48.693 -376)" fill="#435670"/>
    <path id="Trazado_87" data-name="Trazado 87" d="M125.256,387.17A5.257,5.257,0,0,1,120,381.913v-.657a5.256,5.256,0,0,1,10.513,0v.657A5.257,5.257,0,0,1,125.256,387.17Z" transform="translate(-56.923 -376)" fill="#435670"/>
    <path id="Trazado_88" data-name="Trazado 88" d="M125.256,418.17A5.257,5.257,0,0,1,120,412.913v-.657a5.256,5.256,0,0,1,10.513,0v.657A5.257,5.257,0,0,1,125.256,418.17Z" transform="translate(-56.923 -386.632)" fill="#435670"/>
  </g>
  <path id="Trazado_89" data-name="Trazado 89" d="M393.82,168a57.82,57.82,0,1,0,57.82,57.82A57.886,57.886,0,0,0,393.82,168Z" transform="translate(-115.232 -99.667)" fill="#f7c14d"/>
  <path id="Trazado_90" data-name="Trazado 90" d="M399.307,184a47.307,47.307,0,1,0,47.307,47.307A47.361,47.361,0,0,0,399.307,184Z" transform="translate(-120.719 -105.154)" fill="#ffdb66"/>
  <path id="Trazado_91" data-name="Trazado 91" d="M443.065,291.47c-5.585-26-21.664-43.47-40.01-43.47s-34.425,17.47-40.01,43.47a5.259,5.259,0,0,0,1.65,5.036,57.779,57.779,0,0,0,76.719,0A5.258,5.258,0,0,0,443.065,291.47Z" transform="translate(-124.467 -127.103)" fill="#69788d"/>
  <path id="Trazado_92" data-name="Trazado 92" d="M409.661,248.769a28.953,28.953,0,0,0-6.605-.769c-18.346,0-34.425,17.47-40.01,43.47a5.259,5.259,0,0,0,1.65,5.036,57.861,57.861,0,0,0,7.053,5.339C377.367,273.127,392.131,252.848,409.661,248.769Z" transform="translate(-124.467 -127.103)" fill="#56677e"/>
  <path id="Trazado_93" data-name="Trazado 93" d="M413.026,192a21.026,21.026,0,1,0,21.026,21.026A21.049,21.049,0,0,0,413.026,192Z" transform="translate(-134.437 -107.898)" fill="#69788d"/>
  <path id="Trazado_94" data-name="Trazado 94" d="M418.282,230.764a21.01,21.01,0,0,1-17.253-33.022,21.016,21.016,0,1,0,29.249,29.249A20.9,20.9,0,0,1,418.282,230.764Z" transform="translate(-134.437 -109.867)" fill="#56677e"/>
</svg>
