<svg id="sesiones" xmlns="http://www.w3.org/2000/svg" width="336.408" height="336.408" viewBox="0 0 336.408 336.408">
  <path id="Trazado_95" data-name="Trazado 95" d="M336.408,52.966V342.973a11.635,11.635,0,0,1-11.6,11.6H11.6A11.635,11.635,0,0,1,0,342.973V52.966Z" transform="translate(0 -18.165)" fill="#90bae1"/>
  <path id="Trazado_96" data-name="Trazado 96" d="M149.05,126.359v34.8a11.635,11.635,0,0,1-11.6,11.6h-58v-58h58A11.634,11.634,0,0,1,149.05,126.359Z" transform="translate(-27.247 -39.357)" fill="#f0c419"/>
  <g id="Grupo_16" data-name="Grupo 16" transform="translate(29.001 75.402)">
    <path id="Trazado_97" data-name="Trazado 97" d="M73.139,114.759v58h-17.4a11.635,11.635,0,0,1-11.6-11.6v-34.8a11.635,11.635,0,0,1,11.6-11.6Z" transform="translate(-44.138 -114.759)" fill="#f29c1f"/>
    <path id="Trazado_98" data-name="Trazado 98" d="M137.959,161.669h-17.4a5.8,5.8,0,1,1,0-11.6h17.4a5.8,5.8,0,0,1,0,11.6Z" transform="translate(-68.357 -126.868)" fill="#f29c1f"/>
  </g>
  <path id="Trazado_99" data-name="Trazado 99" d="M149.05,258.773v34.8a11.635,11.635,0,0,1-11.6,11.6h-58v-58h58A11.634,11.634,0,0,1,149.05,258.773Z" transform="translate(-27.247 -84.769)" fill="#f0c419"/>
  <g id="Grupo_17" data-name="Grupo 17" transform="translate(29.001 162.404)">
    <path id="Trazado_100" data-name="Trazado 100" d="M73.139,247.172v58h-17.4a11.635,11.635,0,0,1-11.6-11.6v-34.8a11.635,11.635,0,0,1,11.6-11.6Z" transform="translate(-44.138 -247.172)" fill="#f29c1f"/>
    <path id="Trazado_101" data-name="Trazado 101" d="M137.959,294.083h-17.4a5.8,5.8,0,1,1,0-11.6h17.4a5.8,5.8,0,0,1,0,11.6Z" transform="translate(-68.357 -259.282)" fill="#f29c1f"/>
  </g>
  <path id="Trazado_102" data-name="Trazado 102" d="M149.05,391.186v34.8a11.635,11.635,0,0,1-11.6,11.6h-58v-58h58A11.635,11.635,0,0,1,149.05,391.186Z" transform="translate(-27.247 -130.18)" fill="#f0c419"/>
  <g id="Grupo_18" data-name="Grupo 18" transform="translate(29.001 249.406)">
    <path id="Trazado_103" data-name="Trazado 103" d="M73.139,379.586v58h-17.4a11.635,11.635,0,0,1-11.6-11.6v-34.8a11.635,11.635,0,0,1,11.6-11.6Z" transform="translate(-44.138 -379.586)" fill="#f29c1f"/>
    <path id="Trazado_104" data-name="Trazado 104" d="M137.959,426.5h-17.4a5.8,5.8,0,1,1,0-11.6h17.4a5.8,5.8,0,0,1,0,11.6Z" transform="translate(-68.357 -391.696)" fill="#f29c1f"/>
  </g>
  <path id="Trazado_105" data-name="Trazado 105" d="M336.408,11.6V46.4H0V11.6A11.635,11.635,0,0,1,11.6,0H324.808A11.635,11.635,0,0,1,336.408,11.6Z" fill="#3d324c"/>
  <path id="Trazado_106" data-name="Trazado 106" d="M46.911,38.083h-5.8a5.8,5.8,0,1,1,0-11.6h5.8a5.8,5.8,0,0,1,0,11.6Z" transform="translate(-12.11 -9.082)" fill="#e64c3c"/>
  <path id="Trazado_107" data-name="Trazado 107" d="M91.048,38.083h-5.8a5.8,5.8,0,1,1,0-11.6h5.8a5.8,5.8,0,1,1,0,11.6Z" transform="translate(-27.247 -9.082)" fill="#f0c419"/>
  <path id="Trazado_108" data-name="Trazado 108" d="M135.186,38.083h-5.8a5.8,5.8,0,1,1,0-11.6h5.8a5.8,5.8,0,1,1,0,11.6Z" transform="translate(-42.384 -9.082)" fill="#71c285"/>
  <path id="Trazado_109" data-name="Trazado 109" d="M461.807,38.083h-5.8a5.8,5.8,0,1,1,0-11.6h5.8a5.8,5.8,0,1,1,0,11.6Z" transform="translate(-154.399 -9.082)" fill="#556080"/>
  <g id="Grupo_19" data-name="Grupo 19" transform="translate(145.003 98.602)">
    <path id="Trazado_110" data-name="Trazado 110" d="M226.489,161.669h75.4a5.8,5.8,0,0,0,0-11.6h-75.4a5.8,5.8,0,0,0,0,11.6Z" transform="translate(-220.689 -150.068)" fill="#547580"/>
    <path id="Trazado_111" data-name="Trazado 111" d="M301.892,282.483h-75.4a5.8,5.8,0,0,0,0,11.6h75.4a5.8,5.8,0,0,0,0-11.6Z" transform="translate(-220.689 -195.48)" fill="#547580"/>
    <path id="Trazado_112" data-name="Trazado 112" d="M301.892,414.9h-75.4a5.8,5.8,0,0,0,0,11.6h75.4a5.8,5.8,0,0,0,0-11.6Z" transform="translate(-220.689 -240.892)" fill="#547580"/>
  </g>
  <g id="Grupo_20" data-name="Grupo 20" transform="translate(249.477 81.273)">
    <path id="Trazado_113" data-name="Trazado 113" d="M392.923,162.525a5.8,5.8,0,0,0,8.2,0l29-29a5.8,5.8,0,0,0-8.2-8.2l-24.9,24.9-7.5-7.5a5.8,5.8,0,0,0-8.2,8.2Z" transform="translate(-379.693 -123.694)" fill="#14a085"/>
    <path id="Trazado_114" data-name="Trazado 114" d="M421.924,257.736l-24.9,24.9-7.5-7.5a5.8,5.8,0,0,0-8.2,8.2l11.6,11.6a5.8,5.8,0,0,0,8.2,0l29-29a5.8,5.8,0,0,0-8.2-8.2Z" transform="translate(-379.694 -169.106)" fill="#14a085"/>
    <path id="Trazado_115" data-name="Trazado 115" d="M421.924,390.15l-24.9,24.9-7.5-7.5a5.8,5.8,0,0,0-8.2,8.2l11.6,11.6a5.8,5.8,0,0,0,8.2,0l29-29a5.8,5.8,0,0,0-8.2-8.2Z" transform="translate(-379.694 -214.518)" fill="#14a085"/>
  </g>
</svg>
