<svg id="token" xmlns="http://www.w3.org/2000/svg" width="273.332" height="304.87" viewBox="0 0 273.332 304.87">
  <path id="Trazado_116" data-name="Trazado 116" d="M335.769,170.513v10.513H320V160h15.769Zm0,0" transform="translate(-109.745 -54.872)" fill="#ff9811"/>
  <path id="Trazado_117" data-name="Trazado 117" d="M226.024,336H5.256A5.257,5.257,0,0,0,0,341.256v73.589A5.257,5.257,0,0,0,5.256,420.1H226.024a5.257,5.257,0,0,0,5.256-5.256V341.256A5.257,5.257,0,0,0,226.024,336Zm0,0" transform="translate(0 -115.232)" fill="#ff9811"/>
  <path id="Trazado_118" data-name="Trazado 118" d="M221.23,142.615v31.538a10.546,10.546,0,0,1-10.513,10.513H42.513A10.546,10.546,0,0,1,32,174.153V48H221.23Zm0,0" transform="translate(-10.974 -16.462)" fill="#5aaae7"/>
  <path id="Trazado_119" data-name="Trazado 119" d="M42.513,0h168.2A10.546,10.546,0,0,1,221.23,10.513V31.538H32V10.513A10.546,10.546,0,0,1,42.513,0Zm0,0" transform="translate(-10.974)" fill="#ff6243"/>
  <g id="Grupo_21" data-name="Grupo 21" transform="translate(15.769 110.384)">
    <path id="Trazado_120" data-name="Trazado 120" d="M56,424H203.179v10.513H56Zm0,0" transform="translate(-34.974 -255.796)" fill="#cc7400"/>
    <path id="Trazado_121" data-name="Trazado 121" d="M296,424h21.026v10.513H296Zm0,0" transform="translate(-117.283 -255.796)" fill="#cc7400"/>
    <path id="Trazado_122" data-name="Trazado 122" d="M24,424H34.513v10.513H24Zm0,0" transform="translate(-24 -255.796)" fill="#cc7400"/>
    <path id="Trazado_123" data-name="Trazado 123" d="M56,392H66.513v10.513H56Zm0,0" transform="translate(-34.974 -244.821)" fill="#cc7400"/>
    <path id="Trazado_124" data-name="Trazado 124" d="M24,392H34.513v10.513H24Zm0,0" transform="translate(-24 -244.821)" fill="#cc7400"/>
    <path id="Trazado_125" data-name="Trazado 125" d="M88,392H98.513v10.513H88Zm0,0" transform="translate(-45.949 -244.821)" fill="#cc7400"/>
    <path id="Trazado_126" data-name="Trazado 126" d="M120,392h10.513v10.513H120Zm0,0" transform="translate(-56.923 -244.821)" fill="#cc7400"/>
    <path id="Trazado_127" data-name="Trazado 127" d="M152,392h10.513v10.513H152Zm0,0" transform="translate(-67.898 -244.821)" fill="#cc7400"/>
    <path id="Trazado_128" data-name="Trazado 128" d="M184,392h10.513v10.513H184Zm0,0" transform="translate(-78.872 -244.821)" fill="#cc7400"/>
    <path id="Trazado_129" data-name="Trazado 129" d="M216,392h10.513v10.513H216Zm0,0" transform="translate(-89.847 -244.821)" fill="#cc7400"/>
    <path id="Trazado_130" data-name="Trazado 130" d="M248,392h10.513v10.513H248Zm0,0" transform="translate(-100.821 -244.821)" fill="#cc7400"/>
    <path id="Trazado_131" data-name="Trazado 131" d="M280,392h10.513v10.513H280Zm0,0" transform="translate(-111.796 -244.821)" fill="#cc7400"/>
    <path id="Trazado_132" data-name="Trazado 132" d="M312,392h10.513v10.513H312Zm0,0" transform="translate(-122.77 -244.821)" fill="#cc7400"/>
    <path id="Trazado_133" data-name="Trazado 133" d="M56,360H66.513v10.513H56Zm0,0" transform="translate(-34.974 -233.847)" fill="#cc7400"/>
    <path id="Trazado_134" data-name="Trazado 134" d="M24,360H34.513v10.513H24Zm0,0" transform="translate(-24 -233.847)" fill="#cc7400"/>
    <path id="Trazado_135" data-name="Trazado 135" d="M88,360H98.513v10.513H88Zm0,0" transform="translate(-45.949 -233.847)" fill="#cc7400"/>
    <path id="Trazado_136" data-name="Trazado 136" d="M120,360h10.513v10.513H120Zm0,0" transform="translate(-56.923 -233.847)" fill="#cc7400"/>
    <path id="Trazado_137" data-name="Trazado 137" d="M152,360h10.513v10.513H152Zm0,0" transform="translate(-67.898 -233.847)" fill="#cc7400"/>
    <path id="Trazado_138" data-name="Trazado 138" d="M184,360h10.513v10.513H184Zm0,0" transform="translate(-78.872 -233.847)" fill="#cc7400"/>
    <path id="Trazado_139" data-name="Trazado 139" d="M216,360h10.513v10.513H216Zm0,0" transform="translate(-89.847 -233.847)" fill="#cc7400"/>
    <path id="Trazado_140" data-name="Trazado 140" d="M248,360h10.513v10.513H248Zm0,0" transform="translate(-100.821 -233.847)" fill="#cc7400"/>
    <path id="Trazado_141" data-name="Trazado 141" d="M280,360h10.513v10.513H280Zm0,0" transform="translate(-111.796 -233.847)" fill="#cc7400"/>
    <path id="Trazado_142" data-name="Trazado 142" d="M312,360h10.513v10.513H312Zm0,0" transform="translate(-122.77 -233.847)" fill="#cc7400"/>
    <path id="Trazado_143" data-name="Trazado 143" d="M178.513,278.384H168V267.871A15.77,15.77,0,0,1,183.769,252.1h120.9a15.77,15.77,0,0,0,15.769-15.769V194.282a15.77,15.77,0,0,0-15.769-15.769H283.64V168h21.026a26.313,26.313,0,0,1,26.282,26.282v42.051a26.313,26.313,0,0,1-26.282,26.282h-120.9a5.257,5.257,0,0,0-5.256,5.256Zm0,0" transform="translate(-73.385 -168)" fill="#cc7400"/>
  </g>
  <path id="Trazado_144" data-name="Trazado 144" d="M56,16H66.513V26.513H56Zm0,0" transform="translate(-19.205 -5.487)" fill="#cd2a00"/>
  <path id="Trazado_145" data-name="Trazado 145" d="M88,16H98.513V26.513H88Zm0,0" transform="translate(-30.18 -5.487)" fill="#cd2a00"/>
  <path id="Trazado_146" data-name="Trazado 146" d="M120,16h10.513V26.513H120Zm0,0" transform="translate(-41.154 -5.487)" fill="#cd2a00"/>
  <path id="Trazado_147" data-name="Trazado 147" d="M121.31,153.315l-15.769-15.769a5.259,5.259,0,0,1,0-7.433l15.769-15.769,7.433,7.433L116.69,133.829l12.053,12.053Zm0,0" transform="translate(-35.668 -39.215)" fill="#1e81ce"/>
  <path id="Trazado_148" data-name="Trazado 148" d="M152.508,151.239l15.764-42.051,9.845,3.688-15.764,42.054Zm0,0" transform="translate(-52.303 -37.446)" fill="#1e81ce"/>
  <path id="Trazado_149" data-name="Trazado 149" d="M209.777,153.315l-7.433-7.433L214.4,133.829l-12.053-12.053,7.433-7.433,15.769,15.769a5.259,5.259,0,0,1,0,7.433Zm0,0" transform="translate(-69.394 -39.215)" fill="#1e81ce"/>
</svg>
