<svg id="usuario" xmlns="http://www.w3.org/2000/svg" width="336.409" height="260.849" viewBox="0 0 336.409 260.849">
  <path id="Trazado_150" data-name="Trazado 150" d="M63.141,159.632c-53.971,0-47.987,65.632-47.74,113.194a5.078,5.078,0,0,0,2.489,4.343A89.457,89.457,0,0,0,63.141,289.2a89.457,89.457,0,0,0,45.252-12.034,5.079,5.079,0,0,0,2.489-4.343C111.128,225.264,117.112,159.632,63.141,159.632Z" transform="translate(-5.175 -92.526)" fill="#694b4b"/>
  <path id="Trazado_151" data-name="Trazado 151" d="M59.666,159.838c-50.2,2.814-44.5,66.556-44.263,113.059a5.077,5.077,0,0,0,2.489,4.343,89.457,89.457,0,0,0,45.252,12.034L76.782,193.8" transform="translate(-5.177 -92.597)" fill="#5a4146"/>
  <path id="Trazado_152" data-name="Trazado 152" d="M71.092,159.632c-30.688,0-32.819,37.081-32.819,37.081,17.688-2.984,28.557,4.475,46.458-2.984L71.092,289.2a89.455,89.455,0,0,0,45.252-12.034,5.079,5.079,0,0,0,2.489-4.343C119.079,225.264,125.063,159.632,71.092,159.632Z" transform="translate(-13.126 -92.526)" fill="#694b4b"/>
  <path id="Trazado_153" data-name="Trazado 153" d="M145.713,274.76c.212-40.869,4.624-95.043-28.373-109.49-.576,2.99-1.618,11.336,1.091,16.753,6.82,13.64,13.64,13.64,20.458,23.869,6.819,37.508-13.03,77.317-19.623,82.737h0a85.782,85.782,0,0,0,23.957-9.526A5.079,5.079,0,0,0,145.713,274.76Z" transform="translate(-40.007 -94.46)" fill="#785550"/>
  <path id="Trazado_154" data-name="Trazado 154" d="M109.638,333.449,79.212,320.772a6.82,6.82,0,0,1-4.2-6.3v-8.24h-34.1v8.24a6.82,6.82,0,0,1-4.2,6.3L6.3,333.449A10.23,10.23,0,0,0,0,342.892v13.64a6.82,6.82,0,0,0,6.819,6.819H109.113a6.82,6.82,0,0,0,6.819-6.819v-13.64A10.229,10.229,0,0,0,109.638,333.449Z" transform="translate(0 -142.805)" fill="#e6af78"/>
  <path id="Trazado_155" data-name="Trazado 155" d="M109.638,341.255,80.22,329l-22.254,9.6L35.712,329,6.3,341.256A10.229,10.229,0,0,0,0,350.7v13.64a6.82,6.82,0,0,0,6.819,6.819H109.113a6.82,6.82,0,0,0,6.819-6.819V350.7A10.229,10.229,0,0,0,109.638,341.255Z" transform="translate(0 -150.611)" fill="#eff2fa"/>
  <path id="Trazado_156" data-name="Trazado 156" d="M91.7,306.237H57.6v8.24a6.82,6.82,0,0,1-4.2,6.3l-4.752,1.98C85.02,332.025,91.7,306.237,91.7,306.237Z" transform="translate(-16.687 -142.805)" fill="#d29b6e"/>
  <g id="Grupo_22" data-name="Grupo 22" transform="translate(0 172.809)">
    <path id="Trazado_157" data-name="Trazado 157" d="M16.619,362.047,2.933,351.16A10.207,10.207,0,0,0,0,358.3v13.64a6.82,6.82,0,0,0,6.819,6.819h13.64v-8.723A10.231,10.231,0,0,0,16.619,362.047Z" transform="translate(0 -331.021)" fill="#e4eaf6"/>
    <path id="Trazado_158" data-name="Trazado 158" d="M165.766,371.96V358.32a10.207,10.207,0,0,0-2.889-7.1l-13.731,10.844a10.229,10.229,0,0,0-3.839,7.988v8.722h13.64A6.818,6.818,0,0,0,165.766,371.96Z" transform="translate(-49.833 -331.043)" fill="#e4eaf6"/>
    <path id="Trazado_159" data-name="Trazado 159" d="M86.954,369.354H85.931a2.9,2.9,0,0,1-2.9-2.9V343.627h6.819v22.828A2.9,2.9,0,0,1,86.954,369.354Z" transform="translate(-28.476 -328.438)" fill="#e4eaf6"/>
    <path id="Trazado_160" data-name="Trazado 160" d="M73.984,335.691,54.468,321.055a2.728,2.728,0,0,0-3.906.669l-3.856,5.784,11.965,16.751a2.728,2.728,0,0,0,3.924.545Z" transform="translate(-16.018 -320.509)" fill="#e4eaf6"/>
    <path id="Trazado_161" data-name="Trazado 161" d="M88.222,335.691l19.516-14.636a2.728,2.728,0,0,1,3.906.669l3.856,5.784-11.965,16.751a2.728,2.728,0,0,1-3.924.545Z" transform="translate(-30.256 -320.509)" fill="#e4eaf6"/>
  </g>
  <path id="Trazado_162" data-name="Trazado 162" d="M87.807,206.339C70.758,223.387,37.3,209.748,37.3,237.026l2.117,20.093a13.641,13.641,0,0,0,6.959,10.688L65.79,278.593a10.23,10.23,0,0,0,9.935,0L95.14,267.807a13.638,13.638,0,0,0,6.959-10.688l2.444-23.864a37.623,37.623,0,0,0,.154-5.1C103.422,219.471,91.217,213.158,87.807,206.339Z" transform="translate(-12.792 -108.545)" fill="#f0c087"/>
  <path id="Trazado_163" data-name="Trazado 163" d="M37.3,237.025l2.117,20.093a13.641,13.641,0,0,0,6.959,10.688L65.79,278.591a10.184,10.184,0,0,0,6.943,1.037h0s-9.788-2.967-15.614-18.736c-1.785-4.831-4.262-30.4-2.131-33.53,4.213-6.178,27.7-6.819,34.645-18.28q-.514-.638-.949-1.278c-.023-.034-.051-.069-.075-.1a12.969,12.969,0,0,1-.8-1.365C70.758,223.386,37.3,209.747,37.3,237.025Z" transform="translate(-12.792 -108.544)" fill="#e6af78"/>
  <path id="Trazado_164" data-name="Trazado 164" d="M118.453,382.783h-8.866a5.8,5.8,0,0,0-5.8,5.8V389.6h20.458v-1.023A5.8,5.8,0,0,0,118.453,382.783Z" transform="translate(-35.595 -169.057)" fill="#e4eaf6"/>
  <path id="Trazado_165" data-name="Trazado 165" d="M417.644,313.749V295.022H369.487v18.727l24.078,21.4Z" transform="translate(-126.717 -138.959)" fill="#e6af78"/>
  <path id="Trazado_166" data-name="Trazado 166" d="M431.135,332.1l-33.105-7.789a5.313,5.313,0,0,1-1.39-.559L369.826,339.4,344.058,323a5.33,5.33,0,0,1-2.435,1.316l-33.105,7.789a10.7,10.7,0,0,0-8.251,10.418v20.953a5.351,5.351,0,0,0,5.351,5.351H434.036a5.351,5.351,0,0,0,5.351-5.351V342.523A10.7,10.7,0,0,0,431.135,332.1Z" transform="translate(-102.977 -148.554)" fill="#eff2fa"/>
  <path id="Trazado_167" data-name="Trazado 167" d="M369.487,295.022v19.759c30.333,10.928,48.157-16.423,48.157-16.423v-3.336Z" transform="translate(-126.717 -138.959)" fill="#d29b6e"/>
  <path id="Trazado_168" data-name="Trazado 168" d="M353.2,201.37l2.332,51.291a16.053,16.053,0,0,0,6.4,12.113L373,273.07a16.052,16.052,0,0,0,9.631,3.21h10.7a16.053,16.053,0,0,0,9.631-3.21l11.062-8.3a16.052,16.052,0,0,0,6.4-12.113l2.332-51.291Z" transform="translate(-121.131 -106.841)" fill="#f0c087"/>
  <path id="Trazado_169" data-name="Trazado 169" d="M379.954,212.071c10.7,0,26.754-2.675,30.561-10.7H353.2l2.331,51.291a16.053,16.053,0,0,0,6.4,12.113L373,273.07a16.051,16.051,0,0,0,9.631,3.21h5.351c-5.351,0-16.052-10.7-16.052-24.079V220.1C371.927,217.422,374.6,212.071,379.954,212.071Z" transform="translate(-121.131 -106.841)" fill="#e6af78"/>
  <path id="Trazado_170" data-name="Trazado 170" d="M479.791,358.19l17.336-15.573a10.683,10.683,0,0,1,2.3,6.632V370.2a5.351,5.351,0,0,1-5.351,5.351H475.354v-7.411A13.377,13.377,0,0,1,479.791,358.19Z" transform="translate(-163.024 -155.282)" fill="#e4eaf6"/>
  <path id="Trazado_171" data-name="Trazado 171" d="M409.331,380.177H395.953l1.673-24.078h10.032Z" transform="translate(-135.793 -159.905)" fill="#5b5d6e"/>
  <path id="Trazado_172" data-name="Trazado 172" d="M409.331,347.955H395.953V349.5a6.48,6.48,0,0,0,6.48,6.48h.415a6.48,6.48,0,0,0,6.48-6.48v-1.545Z" transform="translate(-135.793 -157.112)" fill="#515262"/>
  <g id="Grupo_23" data-name="Grupo 23" transform="translate(234.743 168.148)">
    <path id="Trazado_173" data-name="Trazado 173" d="M364.921,314.1l24.454,22.008a92.252,92.252,0,0,0-15.3,10.425,3.433,3.433,0,0,1-5.316-1.2L357.27,320.058l3.635-5.452A2.675,2.675,0,0,1,364.921,314.1Z" transform="translate(-357.27 -313.414)" fill="#e4eaf6"/>
    <path id="Trazado_174" data-name="Trazado 174" d="M430.587,314.1,406.133,336.11a92.252,92.252,0,0,1,15.3,10.425,3.433,3.433,0,0,0,5.315-1.2l11.489-25.275-3.635-5.452A2.675,2.675,0,0,0,430.587,314.1Z" transform="translate(-374.028 -313.414)" fill="#e4eaf6"/>
  </g>
  <path id="Trazado_175" data-name="Trazado 175" d="M430.818,173.527l2.509,17.725c11.449,2.29,13.1,20.257,13.337,25.389a5.28,5.28,0,0,0,.846,2.614l4.369,6.776s-1.5-11.2,5.351-18.727C457.228,207.3,459.578,162.825,430.818,173.527Z" transform="translate(-147.75 -96.722)" fill="#785550"/>
  <path id="Trazado_176" data-name="Trazado 176" d="M461.253,248.97l-3.022,12.085a3.217,3.217,0,0,1-3.12,2.436h0a3.217,3.217,0,0,1-3.192-2.817l-1.545-12.36a5.538,5.538,0,0,1,5.495-6.225h.011A5.538,5.538,0,0,1,461.253,248.97Z" transform="translate(-154.442 -120.805)" fill="#f0c087"/>
  <path id="Trazado_177" data-name="Trazado 177" d="M351.444,163.488l3.957,2.7c-17.891,13.21-14.548,35.867-14.548,35.867,5.351,5.351,5.351,18.727,5.351,18.727l5.351-5.351s-2.065-15.457,8.026-21.4c9.364-5.518,17.557-2.675,25.917-2.675,22.406,0,28.677-8.444,27.59-18.727-.562-5.321-8.7-16.4-29.428-16.052C375.294,156.719,359.582,159.252,351.444,163.488Z" transform="translate(-116.812 -91.476)" fill="#694b4b"/>
  <path id="Trazado_178" data-name="Trazado 178" d="M349.884,194.038s-2.842-11.2,5.518-22.825c-17.891,13.21-14.548,35.867-14.548,35.867,5.351,5.351,5.351,18.727,5.351,18.727l5.351-5.351s-2.065-15.457,8.026-21.4c9.364-5.518,17.557-2.675,25.917-2.675a65.79,65.79,0,0,0,9.648-.662C377.892,196.3,367.72,183.225,349.884,194.038Z" transform="translate(-116.812 -96.498)" fill="#5a4146"/>
  <path id="Trazado_179" data-name="Trazado 179" d="M345.223,248.97l3.022,12.085a3.217,3.217,0,0,0,3.121,2.436h0a3.217,3.217,0,0,0,3.192-2.817l1.545-12.36a5.538,5.538,0,0,0-5.5-6.225H350.6A5.538,5.538,0,0,0,345.223,248.97Z" transform="translate(-118.338 -120.805)" fill="#e6af78"/>
  <path id="Trazado_180" data-name="Trazado 180" d="M445.219,384.6H431.842a5.351,5.351,0,0,0-5.351,5.351h24.078A5.35,5.35,0,0,0,445.219,384.6Z" transform="translate(-146.266 -169.681)" fill="#e4eaf6"/>
  <path id="Trazado_181" data-name="Trazado 181" d="M213.517,57.5c-91.751,0-81.578,111.576-81.158,192.43a8.633,8.633,0,0,0,4.231,7.383c10.167,6.129,38.089,20.458,76.928,20.458s66.761-14.33,76.928-20.458a8.635,8.635,0,0,0,4.231-7.383C295.095,169.075,305.268,57.5,213.517,57.5Z" transform="translate(-45.211 -57.5)" fill="#694b4b"/>
  <path id="Trazado_182" data-name="Trazado 182" d="M207.608,57.849c-85.331,4.784-75.656,113.145-75.246,192.2a8.633,8.633,0,0,0,4.231,7.383c10.167,6.129,38.089,20.458,76.928,20.458l23.187-162.306" transform="translate(-45.214 -57.62)" fill="#5a4146"/>
  <path id="Trazado_183" data-name="Trazado 183" d="M227.034,57.5c-52.17,0-55.793,63.038-55.793,63.038,30.07-5.072,48.547,7.608,78.979-5.072L227.034,277.772c38.839,0,66.761-14.33,76.928-20.458a8.635,8.635,0,0,0,4.231-7.383C308.611,169.075,318.785,57.5,227.034,57.5Z" transform="translate(-58.728 -57.5)" fill="#694b4b"/>
  <path id="Trazado_184" data-name="Trazado 184" d="M353.89,253.218c.36-69.477,7.86-161.572-48.234-186.132-.978,5.083-2.75,19.272,1.855,28.482,11.594,23.187,23.187,23.187,34.78,40.577,11.593,63.763-22.152,131.44-33.359,140.653h0a145.817,145.817,0,0,0,40.727-16.2A8.634,8.634,0,0,0,353.89,253.218Z" transform="translate(-104.426 -60.788)" fill="#785550"/>
  <path id="Trazado_185" data-name="Trazado 185" d="M292.561,352.99l-51.724-21.552a11.593,11.593,0,0,1-7.134-10.7V306.728H175.737v14.008a11.594,11.594,0,0,1-7.134,10.7L116.878,352.99a17.39,17.39,0,0,0-10.7,16.052v23.187a11.594,11.594,0,0,0,11.593,11.594h173.9a11.594,11.594,0,0,0,11.593-11.594V369.042A17.388,17.388,0,0,0,292.561,352.99Z" transform="translate(-36.414 -142.973)" fill="#e6af78"/>
  <path id="Trazado_186" data-name="Trazado 186" d="M292.561,366.261l-50.01-20.838L204.72,361.75l-37.831-16.327-50.01,20.838a17.39,17.39,0,0,0-10.7,16.052V405.5a11.594,11.594,0,0,0,11.593,11.594h173.9A11.594,11.594,0,0,0,303.262,405.5V382.313A17.388,17.388,0,0,0,292.561,366.261Z" transform="translate(-36.414 -156.244)" fill="#b4e1fa"/>
  <path id="Trazado_187" data-name="Trazado 187" d="M262.07,306.728H204.1v14.008a11.594,11.594,0,0,1-7.134,10.7l-8.078,3.367C250.711,350.567,262.07,306.728,262.07,306.728Z" transform="translate(-64.781 -142.973)" fill="#d29b6e"/>
  <g id="Grupo_24" data-name="Grupo 24" transform="translate(69.765 179.695)">
    <path id="Trazado_188" data-name="Trazado 188" d="M134.431,401.605,111.165,383.1a17.352,17.352,0,0,0-4.986,12.135V418.42a11.593,11.593,0,0,0,11.593,11.593h23.187V415.184A17.4,17.4,0,0,0,134.431,401.605Z" transform="translate(-106.179 -348.86)" fill="#a0d2f0"/>
    <path id="Trazado_189" data-name="Trazado 189" d="M387.979,418.457V395.271a17.351,17.351,0,0,0-4.911-12.063l-23.342,18.435a17.391,17.391,0,0,0-6.526,13.579V430.05h23.187A11.593,11.593,0,0,0,387.979,418.457Z" transform="translate(-190.895 -348.897)" fill="#a0d2f0"/>
    <path id="Trazado_190" data-name="Trazado 190" d="M253.129,414.028h0a5.8,5.8,0,0,1-5.8-5.8V370.292h11.593v37.94A5.8,5.8,0,0,1,253.129,414.028Z" transform="translate(-154.588 -344.468)" fill="#a0d2f0"/>
    <path id="Trazado_191" data-name="Trazado 191" d="M231.95,356.8l-33.177-24.883a4.637,4.637,0,0,0-6.641,1.137l-6.555,9.833,20.34,28.476a4.637,4.637,0,0,0,6.67.926Z" transform="translate(-133.409 -330.989)" fill="#a0d2f0"/>
    <path id="Trazado_192" data-name="Trazado 192" d="M256.155,356.8l33.177-24.883a4.637,4.637,0,0,1,6.641,1.137l6.555,9.833-20.34,28.476a4.637,4.637,0,0,1-6.67.926Z" transform="translate(-157.614 -330.989)" fill="#a0d2f0"/>
  </g>
  <path id="Trazado_193" data-name="Trazado 193" d="M255.449,136.9c-28.983,28.983-85.862,5.8-85.862,52.17l3.6,34.159A23.184,23.184,0,0,0,185.018,241.4l33,18.336a17.39,17.39,0,0,0,16.891,0l33-18.336a23.189,23.189,0,0,0,11.831-18.169l4.155-40.569a63.9,63.9,0,0,0,.261-8.678C281.993,159.226,261.246,148.493,255.449,136.9Z" transform="translate(-58.16 -84.73)" fill="#f0c087"/>
  <path id="Trazado_194" data-name="Trazado 194" d="M169.587,189.07l3.6,34.159A23.184,23.184,0,0,0,185.018,241.4l33,18.336a17.316,17.316,0,0,0,11.8,1.764h0s-16.64-5.042-26.543-31.852c-3.034-8.213-7.246-51.687-3.623-57,7.161-10.5,47.1-11.594,58.9-31.077q-.875-1.085-1.613-2.174c-.04-.058-.087-.118-.127-.176a21.906,21.906,0,0,1-1.366-2.319C226.466,165.883,169.587,142.7,169.587,189.07Z" transform="translate(-58.16 -84.73)" fill="#e6af78"/>
  <path id="Trazado_195" data-name="Trazado 195" d="M311.605,436.856H288.418a5.8,5.8,0,0,0-5.8,5.8v5.8H317.4v-5.8A5.8,5.8,0,0,0,311.605,436.856Z" transform="translate(-96.926 -187.601)" fill="#a0d2f0"/>
</svg>
