<svg xmlns="http://www.w3.org/2000/svg" width="24.685" height="24.683" viewBox="0 0 24.685 24.683">
  <path id="Search" d="M23.227,24.683a1.465,1.465,0,0,1-1.055-.452L15.42,17.476l-.006,0a9.473,9.473,0,0,1-5.679,1.873H9.7A9.715,9.715,0,0,1,2.8,2.812,9.655,9.655,0,0,1,9.586,0h.042a9.755,9.755,0,0,1,9.7,9.712,9.5,9.5,0,0,1-1.852,5.7l6.758,6.76a1.457,1.457,0,0,1-1,2.513ZM9.6,1.936A7.714,7.714,0,0,0,4.215,15.128a7.758,7.758,0,0,0,5.476,2.29h.03A7.741,7.741,0,0,0,9.634,1.936Z" transform="translate(0 0)" fill="#8e8e93"/>
</svg>
